:FULLY-SPECIFIED
:FORCE-ALL-JOINTS-BE-3DOF
:DEGREES
97
root 9.37343 16.2706 -23.6133 3.48603 -2.85296 3.67811
lfemur -4.9719 1.77005 -28.7063
ltibia 21.3462 0 0
lfoot -17.9784 6.70035 0
ltoes -0.249007 0 0
rfemur -32.4029 3.86856 15.8634
rtibia 47.9158 0 0
rfoot -20.9683 -12.4866 0
rtoes -19.4406 0 0
lowerback -6.7629 -1.94717 -4.87433
upperback -0.488706 -2.3158 2.60231
thorax 3.59491 -1.25118 5.22022
lowerneck -20.926 -4.94201 -13.4021
upperneck 19.9044 -5.39725 11.4359
head 10.5355 -2.18339 5.54491
lclavicle -1.31166e-014 7.10495e-015 0
lhumerus -22.1734 -19.5012 88.5926
lradius 33.9881 0 0
lwrist 7.82032 0 0
lhand -13.3279 -24.6808 0
lfingers 7.12502 0 0
lthumb 12.7771 4.90711 0
rclavicle -1.31166e-014 7.10495e-015 0
rhumerus -43.7452 12.0154 -86.3163
rradius 38.1983 0 0
rwrist -21.3191 0 0
rhand -29.1935 -21.7823 0
rfingers 7.12502 0 0
rthumb -2.53862 -51.7469 0
98
root 9.36735 16.2611 -23.4799 3.55663 -2.51176 3.73873
lfemur -4.14334 1.74395 -28.6575
ltibia 20.5838 0 0
lfoot -17.88 6.4466 0
ltoes -0.45565 0 0
rfemur -32.7612 4.12 15.478
rtibia 47.1424 0 0
rfoot -21.0782 -12.5144 0
rtoes -19.485 0 0
lowerback -6.81905 -2.01348 -4.92727
upperback -0.513217 -2.39631 2.58362
thorax 3.61344 -1.29169 5.21902
lowerneck -20.873 -4.95937 -13.3975
upperneck 19.9453 -5.42977 11.4208
head 10.5444 -2.20144 5.53463
lclavicle -1.44376e-014 6.82281e-015 0
lhumerus -22.4492 -19.7367 88.8891
lradius 34.2106 0 0
lwrist 7.9087 0 0
lhand -13.2562 -24.6678 0
lfingers 7.12502 0 0
lthumb 12.8462 4.91555 0
rclavicle -1.44376e-014 6.82281e-015 0
rhumerus -43.8697 11.8158 -86.1857
rradius 38.0323 0 0
rwrist -21.202 0 0
rhand -29.2103 -21.8258 0
rfingers 7.12502 0 0
rthumb -2.55482 -51.7901 0
99
root 9.36127 16.2517 -23.3465 3.62723 -2.17057 3.79935
lfemur -3.31478 1.71785 -28.6087
ltibia 19.8215 0 0
lfoot -17.7817 6.19285 0
ltoes -0.662293 0 0
rfemur -33.1196 4.37144 15.0926
rtibia 46.369 0 0
rfoot -21.1881 -12.5421 0
rtoes -19.5293 0 0
lowerback -6.87521 -2.0798 -4.98021
upperback -0.537728 -2.47681 2.56493
thorax 3.63198 -1.33219 5.21781
lowerneck -20.8201 -4.97674 -13.3929
upperneck 19.9862 -5.46229 11.4057
head 10.5534 -2.2195 5.52435
lclavicle -1.57587e-014 6.54066e-015 0
lhumerus -22.7249 -19.9721 89.1857
lradius 34.4331 0 0
lwrist 7.99707 0 0
lhand -13.1846 -24.6547 0
lfingers 7.12502 0 0
lthumb 12.9152 4.924 0
rclavicle -1.57587e-014 6.54066e-015 0
rhumerus -43.9942 11.6163 -86.0551
rradius 37.8663 0 0
rwrist -21.085 0 0
rhand -29.2271 -21.8692 0
rfingers 7.12502 0 0
rthumb -2.57102 -51.8334 0
100
root 9.35519 16.2422 -23.2132 3.69783 -1.82937 3.85997
lfemur -2.48622 1.69174 -28.56
ltibia 19.0591 0 0
lfoot -17.6834 5.93911 0
ltoes -0.868936 0 0
rfemur -33.478 4.62287 14.7072
rtibia 45.5956 0 0
rfoot -21.298 -12.5699 0
rtoes -19.5737 0 0
lowerback -6.93137 -2.14611 -5.03316
upperback -0.562239 -2.55731 2.54623
thorax 3.65052 -1.37269 5.21661
lowerneck -20.7671 -4.99411 -13.3883
upperneck 20.0271 -5.49481 11.3905
head 10.5623 -2.23756 5.51407
lclavicle -1.70798e-014 6.25851e-015 0
lhumerus -23.0006 -20.2076 89.4822
lradius 34.6556 0 0
lwrist 8.08545 0 0
lhand -13.113 -24.6416 0
lfingers 7.12502 0 0
lthumb 12.9842 4.93244 0
rclavicle -1.70798e-014 6.25851e-015 0
rhumerus -44.1187 11.4167 -85.9246
rradius 37.7003 0 0
rwrist -20.9679 0 0
rhand -29.2438 -21.9127 0
rfingers 7.12502 0 0
rthumb -2.58722 -51.8766 0
